<?xml version="1.0" standalone="no"?>
<!DOCTYPE svg PUBLIC "-//W3C//DTD SVG 20010904//EN"
 "http://www.w3.org/TR/2001/REC-SVG-20010904/DTD/svg10.dtd">
<svg version="1.0" xmlns="http://www.w3.org/2000/svg"
 width="1110.000000pt" height="650.000000pt" viewBox="0 0 1110.000000 650.000000"
 preserveAspectRatio="xMidYMid meet">

<g transform="translate(0.000000,650.000000) scale(0.100000,-0.100000)"
fill="#000000" stroke="none">

<path d="M7485 4202 c-1986 -994 -4474 -2240 -5530 -2769 -1056 -529 -1928
-964 -1937 -967 -17 -5 -18 -25 -18 -236 l0 -230 5550 0 5550 0 0 3005 c0
1653 -1 3005 -2 3005 -2 0 -1627 -814 -3613 -1808z m2540 711 c59 -31 104 -78
132 -140 22 -47 25 -65 21 -127 -5 -81 -29 -134 -80 -183 -62 -60 -172 -94
-240 -75 -30 8 -39 7 -51 -6 -24 -29 -537 -932 -537 -945 1 -6 30 -34 67 -62
36 -27 84 -71 107 -97 22 -26 44 -48 47 -48 8 0 519 326 532 339 5 5 2 33 -7
62 -25 91 -28 149 -12 227 61 292 363 443 632 316 275 -130 339 -500 125 -715
-171 -170 -419 -182 -610 -28 -35 28 -66 49 -70 47 -37 -15 -521 -334 -521
-343 0 -7 18 -50 39 -96 22 -46 47 -119 58 -161 l18 -76 40 -6 c22 -3 113 -8
201 -12 l162 -6 16 50 c23 67 84 134 154 169 76 37 193 39 259 5 129 -67 195
-192 173 -328 -38 -238 -339 -339 -509 -172 -51 51 -71 86 -86 153 l-11 50
-110 6 c-60 4 -147 8 -193 10 l-85 4 -3 -98 c-9 -227 -98 -441 -257 -611 -25
-27 -46 -51 -46 -54 0 -2 113 -182 251 -399 229 -359 253 -393 273 -386 41 15
149 8 196 -14 98 -44 152 -126 158 -239 5 -93 -21 -157 -90 -219 -178 -160
-458 -37 -458 201 0 72 13 113 51 171 l29 41 -241 379 c-133 208 -245 382
-250 387 -5 6 -43 -8 -96 -36 -162 -85 -344 -124 -513 -111 l-77 6 -12 -64
c-27 -157 -27 -153 12 -167 51 -19 124 -87 154 -146 19 -37 27 -71 31 -127 4
-67 1 -83 -23 -138 -57 -127 -177 -199 -311 -188 -257 20 -378 310 -215 516
39 49 133 99 203 107 l54 6 17 106 c10 58 14 109 10 113 -5 3 -33 14 -63 24
-84 27 -198 89 -275 150 -64 51 -185 180 -185 198 0 18 -38 -1 -210 -112 -139
-89 -185 -123 -183 -137 1 -11 9 -44 17 -74 86 -299 -189 -604 -499 -552 -360
60 -507 501 -252 756 172 172 437 181 616 20 44 -40 53 -44 72 -34 20 11 360
229 368 236 2 2 -8 32 -23 66 -37 89 -63 199 -71 304 l-7 90 -352 12 c-193 7
-403 15 -467 19 l-116 6 -16 -42 c-40 -100 -148 -173 -258 -174 -71 0 -174 46
-211 96 -52 67 -62 98 -62 182 0 105 36 177 116 230 119 79 270 59 365 -49 22
-25 46 -64 53 -88 8 -24 15 -44 16 -46 4 -6 752 -37 888 -37 l59 0 23 88 c13
48 30 100 39 117 8 16 15 33 15 38 0 8 -281 132 -299 132 -5 0 -26 -16 -47
-37 -113 -106 -277 -104 -389 4 -138 134 -96 362 81 449 48 23 63 26 127 22
89 -6 140 -31 196 -94 47 -53 74 -131 70 -196 -3 -28 1 -44 11 -50 50 -28 304
-128 309 -121 4 4 27 34 51 66 115 153 321 288 503 328 65 14 64 12 44 119
l-12 65 -64 7 c-76 8 -173 52 -230 103 -24 22 -56 68 -79 113 -35 73 -37 81
-37 176 0 88 3 108 26 156 76 160 251 257 417 230 181 -30 319 -181 330 -361
10 -165 -67 -303 -210 -375 -56 -28 -55 -23 -27 -153 l10 -48 97 -6 c110 -8
197 -26 295 -63 38 -15 69 -25 71 -23 1 2 125 219 276 482 l272 478 -25 27
c-42 44 -67 110 -67 178 0 134 62 224 189 271 50 19 156 11 206 -14z"/>



<path d="M9835 4819 c-131 -76 -131 -245 0 -309 36 -17 56 -21 88 -16 91 15
147 80 147 174 0 54 -24 100 -72 135 -33 24 -132 34 -163 16z"/>
<path d="M8490 4409 c-75 -15 -149 -73 -188 -149 -32 -61 -34 -70 -30 -141 4
-60 10 -86 31 -122 94 -160 295 -195 432 -75 63 55 87 107 93 196 4 66 2 78
-27 137 -60 120 -180 180 -311 154z"/>
<path d="M10343 4096 c-96 -31 -189 -120 -220 -209 -27 -78 -23 -178 9 -247
47 -103 117 -165 224 -196 151 -44 323 37 393 186 37 79 37 201 0 280 -36 77
-78 121 -151 160 -52 28 -75 34 -138 37 -45 2 -92 -3 -117 -11z"/>
<path d="M7311 3494 c-75 -39 -111 -146 -72 -221 66 -130 235 -131 301 -2 11
21 20 53 20 71 -1 48 -33 112 -71 138 -43 31 -130 38 -178 14z"/>
<path d="M8628 3470 c-311 -53 -576 -295 -659 -605 -29 -107 -31 -298 -5 -400
44 -173 165 -359 298 -460 78 -60 222 -129 313 -152 94 -23 286 -23 379 0 226
56 439 224 541 428 63 125 88 227 88 369 1 189 -35 310 -139 467 -174 263
-504 405 -816 353z m387 -389 c101 -50 177 -151 192 -256 5 -37 10 -46 36 -56
115 -48 181 -208 133 -323 -33 -78 -116 -141 -198 -152 -24 -2 -218 -1 -433 4
-422 9 -410 7 -490 67 -69 51 -110 182 -86 271 15 55 65 129 105 154 27 16 34
28 39 60 14 104 141 178 240 141 20 -8 29 -5 48 15 35 37 116 86 168 101 75
21 171 11 246 -26z"/>
<path d="M8783 3066 c-52 -17 -122 -57 -146 -84 -18 -20 -18 -21 8 -60 30 -45
40 -127 16 -127 -8 0 -19 19 -26 43 -7 23 -20 53 -28 66 -20 30 -76 56 -119
56 -67 0 -138 -70 -138 -137 0 -25 -8 -37 -41 -62 -77 -56 -117 -142 -105
-225 10 -66 60 -135 121 -166 l49 -25 396 -7 c250 -4 409 -3 433 3 114 30 179
173 128 284 -36 80 -113 125 -214 125 -41 0 -48 3 -45 18 2 13 15 18 51 20 55
4 56 8 27 86 -56 147 -228 238 -367 192z"/>
<path d="M6540 2938 c-45 -31 -69 -66 -76 -110 -18 -111 56 -200 167 -200 85
0 150 60 165 149 8 55 -24 124 -74 158 -50 34 -134 35 -182 3z"/>
<path d="M10330 2949 c-137 -26 -218 -188 -159 -319 27 -60 54 -88 114 -116
64 -31 125 -31 190 0 123 57 170 192 110 313 -48 96 -145 142 -255 122z"/>
<path d="M7103 2026 c-150 -49 -256 -206 -239 -354 14 -121 86 -223 196 -279
47 -23 67 -27 140 -28 103 0 170 27 239 96 69 69 96 136 96 239 0 102 -28 173
-95 240 -83 83 -231 121 -337 86z"/>
<path d="M8384 1436 c-117 -54 -166 -193 -110 -311 58 -126 204 -175 325 -110
147 81 171 265 49 382 -70 67 -172 82 -264 39z"/>
<path d="M9915 1064 c-67 -35 -97 -83 -97 -156 0 -64 37 -122 95 -149 53 -23
91 -24 143 0 58 26 87 72 92 143 4 51 1 64 -22 99 -46 69 -144 98 -211 63z"/>
<path d="M2957 5734 c-3 -4 -259 -97 -569 -208 l-563 -201 -7 -115 c-4 -63
-10 -177 -14 -252 l-6 -138 -484 0 -484 0 0 -120 0 -120 530 0 530 0 0 35 0
35 -495 0 -495 0 0 50 0 50 595 0 595 0 0 -50 0 -50 35 0 35 0 0 85 0 85 -139
0 c-78 0 -142 4 -146 10 -6 10 12 460 19 467 2 2 242 -101 533 -230 l528 -235
3 -701 c1 -385 -1 -701 -5 -701 -5 0 -245 79 -535 176 l-528 176 0 179 0 179
-35 0 -35 0 0 -204 0 -204 582 -194 c540 -181 584 -194 608 -181 14 8 264 99
555 202 l530 189 0 793 0 794 -547 195 c-300 107 -550 198 -554 203 -9 9 -28
9 -37 1z m3 -454 l0 -369 -112 50 c-62 28 -267 119 -455 202 -189 84 -343 154
-343 157 0 5 883 327 903 329 4 1 7 -165 7 -369z m537 189 c238 -85 433 -156
433 -159 0 -3 -152 -72 -338 -154 -185 -82 -385 -171 -444 -197 l-108 -48 0
361 c0 284 3 359 13 356 6 -3 207 -74 444 -159z m533 -919 c0 -390 -2 -710 -4
-710 -2 0 -156 52 -342 116 -186 64 -408 139 -491 168 l-153 51 0 326 0 325
488 217 c268 119 490 216 495 217 4 0 7 -319 7 -710z m-538 -611 c244 -84 446
-154 450 -158 4 -3 -194 -78 -439 -166 -245 -88 -450 -161 -455 -163 -4 -2 -8
141 -8 317 0 177 2 321 4 321 3 0 204 -68 448 -151z"/>
<path d="M5018 4993 l-37 -25 39 -59 c22 -32 40 -62 40 -66 0 -4 -151 -7 -336
-5 l-335 3 3 -48 3 -48 367 -5 c201 -3 368 -7 371 -10 3 -3 35 -52 72 -108
l68 -104 -68 -99 c-38 -55 -73 -103 -79 -107 -6 -4 -104 -5 -218 -3 l-208 3 0
-51 0 -51 169 0 c94 0 172 -4 175 -9 3 -4 -13 -34 -35 -66 -22 -31 -39 -58
-37 -59 2 -2 20 -15 41 -31 21 -15 39 -26 41 -24 15 17 336 490 336 495 0 11
-322 504 -329 503 -3 0 -23 -12 -43 -26z"/>
<path d="M565 4851 c-3 -5 -1 -12 5 -16 28 -17 1 -25 -90 -25 -75 0 -100 -3
-100 -13 0 -9 29 -13 113 -15 91 -3 114 -6 125 -20 29 -37 31 -48 10 -80 -19
-31 -22 -32 -89 -32 -55 0 -69 -3 -69 -15 0 -12 13 -15 55 -15 51 0 69 -10 45
-25 -14 -9 -12 -25 3 -25 6 0 34 32 60 70 54 78 54 69 -11 168 -35 52 -46 60
-57 43z"/>
<path d="M4180 4800 l0 -50 50 0 50 0 0 50 0 50 -50 0 -50 0 0 -50z"/>
<path d="M312 4799 c2 -6 8 -10 13 -10 5 0 11 4 13 10 2 6 -4 11 -13 11 -9 0
-15 -5 -13 -11z"/>
<path d="M380 4715 c0 -8 5 -15 10 -15 6 0 10 7 10 15 0 8 -4 15 -10 15 -5 0
-10 -7 -10 -15z"/>
<path d="M440 4715 c0 -12 16 -15 80 -15 64 0 80 3 80 15 0 12 -16 15 -80 15
-64 0 -80 -3 -80 -15z"/>
<path d="M410 4635 c0 -8 5 -15 10 -15 6 0 10 7 10 15 0 8 -4 15 -10 15 -5 0
-10 -7 -10 -15z"/>
<path d="M4390 4561 c0 -10 -3 -33 -6 -50 l-6 -31 53 0 54 0 0 50 0 50 -47 0
c-40 0 -48 -3 -48 -19z"/>
<path d="M4600 4531 l0 -48 88 -6 c48 -4 165 -7 260 -7 l172 -1 0 51 0 50
-177 0 c-98 0 -215 2 -260 5 l-83 4 0 -48z"/>
<path d="M870 4427 c0 -7 5 -18 12 -25 9 -9 -12 -12 -96 -12 -82 0 -107 -3
-104 -12 3 -9 38 -14 116 -16 l111 -3 22 -31 23 -31 -21 -36 -21 -36 -66 3
c-55 3 -66 1 -66 -12 0 -13 11 -16 51 -16 46 0 50 -2 44 -20 -16 -50 12 -34
60 35 l53 77 -46 73 c-44 69 -72 93 -72 62z"/>
<path d="M1090 4280 l0 -120 535 0 535 0 0 35 0 35 -497 2 -498 3 -3 48 -3 47
595 0 596 0 0 -51 0 -50 35 3 c20 2 35 6 35 11 0 4 0 41 0 82 l0 75 -665 0
-665 0 0 -120z"/>
<path d="M620 4375 c0 -9 5 -15 11 -13 6 2 11 8 11 13 0 5 -5 11 -11 13 -6 2
-11 -4 -11 -13z"/>
<path d="M4490 4262 l0 -53 48 3 47 3 3 47 3 46 -50 4 -51 3 0 -53z"/>
<path d="M680 4295 c0 -8 7 -15 15 -15 8 0 15 7 15 15 0 8 -7 15 -15 15 -8 0
-15 -7 -15 -15z"/>
<path d="M750 4295 c0 -12 15 -15 75 -15 60 0 75 3 75 15 0 12 -15 15 -75 15
-60 0 -75 -3 -75 -15z"/>
<path d="M717 4223 c-12 -11 -8 -23 8 -23 8 0 15 7 15 15 0 16 -12 20 -23 8z"/>
<path d="M4434 3888 c-8 -16 -14 -31 -12 -32 2 -1 110 -51 240 -111 131 -61
238 -112 238 -116 0 -3 -147 -55 -327 -116 -181 -61 -612 -208 -960 -326
l-632 -215 -988 349 c-543 192 -989 349 -990 349 -2 0 -2 -59 -1 -132 l3 -132
920 -333 c506 -183 943 -340 970 -349 l50 -16 755 257 c415 141 890 303 1055
358 l300 102 3 93 c2 73 6 92 17 92 8 0 15 5 15 10 0 6 -4 10 -9 10 -6 0 -121
52 -258 116 -136 64 -276 129 -311 144 l-62 29 -16 -31z m544 -365 l-3 -46
-100 -34 c-614 -212 -1921 -653 -1932 -653 -8 0 -101 31 -206 69 -687 248
-1635 590 -1650 596 -13 5 -17 19 -17 56 0 31 4 49 12 49 6 0 255 -86 552
-191 298 -106 722 -256 944 -334 l403 -142 747 254 c411 140 857 292 992 338
135 46 249 84 253 84 4 1 7 -20 5 -46z"/>
</g>
</svg>
