<?xml version="1.0" standalone="no"?>
<!DOCTYPE svg PUBLIC "-//W3C//DTD SVG 20010904//EN"
 "http://www.w3.org/TR/2001/REC-SVG-20010904/DTD/svg10.dtd">
<svg version="1.0" xmlns="http://www.w3.org/2000/svg"
 width="348.000000pt" height="348.000000pt" viewBox="0 0 348.000000 348.000000"
 preserveAspectRatio="xMidYMid meet">

<g transform="translate(0.000000,348.000000) scale(0.100000,-0.100000)"
fill="#000000" stroke="none">
<path d="M1595 3474 c-16 -2 -66 -9 -110 -15 -340 -44 -681 -212 -943 -464
-286 -274 -461 -609 -524 -1000 -16 -103 -16 -407 0 -510 28 -172 95 -382 168
-527 162 -320 452 -610 772 -772 145 -73 355 -140 527 -168 103 -16 407 -16
510 0 386 62 722 236 991 513 218 226 357 469 434 764 44 167 54 253 54 445 0
192 -10 278 -54 445 -77 295 -216 538 -434 764 -264 272 -592 445 -965 508
-85 14 -368 25 -426 17z m415 -190 c485 -82 931 -420 1144 -867 104 -219 150
-426 150 -677 0 -251 -46 -458 -150 -677 -172 -362 -516 -671 -889 -800 -111
-38 -263 -73 -352 -80 l-83 -6 0 150 0 151 380 191 c219 111 386 201 395 214
11 15 15 46 15 107 l0 85 36 29 c20 16 45 48 56 72 65 149 -118 288 -248 189
-89 -68 -84 -202 9 -264 37 -24 37 -25 37 -92 l0 -68 -332 -168 c-182 -92
-335 -170 -340 -171 -5 -2 -7 60 -6 137 l3 141 149 70 c81 38 155 75 162 81
11 9 14 60 14 258 l0 246 276 154 c151 85 282 160 290 168 10 10 14 37 14 88
0 73 0 73 35 95 50 31 78 91 72 153 -7 81 -63 137 -145 145 -95 9 -174 -61
-175 -157 -1 -57 25 -107 71 -136 30 -19 32 -23 29 -74 l-2 -53 -275 -155
c-151 -85 -281 -162 -287 -171 -10 -12 -13 -79 -13 -255 l0 -238 -105 -50
c-58 -27 -108 -49 -110 -49 -3 0 -5 227 -5 505 l0 505 243 118 c200 98 245
123 250 143 4 13 7 61 7 106 0 81 0 82 31 100 86 51 99 175 25 249 -115 115
-299 18 -272 -144 7 -44 32 -80 74 -107 30 -19 31 -23 32 -88 l0 -67 -191 -95
c-105 -52 -193 -95 -195 -95 -2 0 -4 130 -4 289 l0 288 34 24 c53 36 79 90 74
151 -15 154 -211 204 -296 76 -49 -74 -28 -175 46 -225 l32 -21 0 -471 c0
-259 -2 -471 -5 -472 -3 0 -64 30 -135 67 l-130 68 0 226 c0 261 14 225 -124
328 l-80 60 3 58 c2 48 -2 66 -21 93 -39 58 -72 76 -138 76 -66 0 -99 -18
-137 -75 -41 -60 -25 -163 32 -208 45 -35 98 -47 145 -33 l41 12 84 -63 85
-62 0 -227 c0 -202 2 -229 18 -247 9 -11 93 -60 185 -108 93 -47 171 -92 173
-98 3 -7 3 -86 2 -177 l-3 -166 -285 132 -285 132 -5 127 -5 128 -140 73 -140
74 -7 52 c-7 58 -29 93 -78 127 -46 31 -124 31 -171 -1 -39 -26 -79 -97 -79
-142 0 -41 38 -105 79 -132 41 -27 117 -31 162 -8 29 16 32 15 151 -47 l122
-63 -3 -122 -2 -122 29 -18 c16 -10 172 -83 345 -163 l316 -145 3 -498 c2
-275 0 -501 -4 -503 -4 -3 -41 -2 -83 2 l-75 7 0 313 c0 172 -4 323 -9 336 -7
19 -56 45 -224 122 l-215 98 -6 37 c-25 152 -207 194 -300 68 -29 -40 -29
-134 0 -173 39 -53 70 -69 137 -69 47 0 69 5 92 21 l30 21 190 -87 190 -87 3
-292 c1 -160 0 -291 -4 -291 -3 0 -41 9 -85 20 -602 154 -1057 643 -1165 1255
-24 136 -24 394 0 530 57 323 205 605 440 841 270 269 589 418 981 458 75 8
300 -4 395 -20z"/>
</g>
</svg>
